<svg xmlns="http://www.w3.org/2000/svg" x="0px" y="0px"
width="80" height="80"
viewBox="0 0 172 172"
style=" fill:#000000;"><g fill="none" fill-rule="nonzero" stroke="none" stroke-width="1" stroke-linecap="butt" stroke-linejoin="miter" stroke-miterlimit="10" stroke-dasharray="" stroke-dashoffset="0" font-family="none" font-weight="none" font-size="none" text-anchor="none" style="mix-blend-mode: normal"><path d="M0,172v-172h172v172z" fill="none"></path><g fill="#ffffff"><path d="M34.4,27.95c-10.65762,0 -19.35,8.69238 -19.35,19.35v77.4c0,10.65762 8.69238,19.35 19.35,19.35h103.2c10.65762,0 19.35,-8.69238 19.35,-19.35v-77.4c0,-10.65762 -8.69238,-19.35 -19.35,-19.35zM34.4,32.25h103.2c8.33965,0 15.05,6.71035 15.05,15.05v77.4c0,8.33965 -6.71035,15.05 -15.05,15.05h-103.2c-8.33965,0 -15.05,-6.71035 -15.05,-15.05v-77.4c0,-8.33965 6.71035,-15.05 15.05,-15.05zM30.1,40.85c-1.18418,0 -2.15,0.96582 -2.15,2.15c0,1.18418 0.96582,2.15 2.15,2.15c1.18418,0 2.15,-0.96582 2.15,-2.15c0,-1.18418 -0.96582,-2.15 -2.15,-2.15zM38.7,40.85c-1.18418,0 -2.15,0.96582 -2.15,2.15c0,1.18418 0.96582,2.15 2.15,2.15c1.18418,0 2.15,-0.96582 2.15,-2.15c0,-1.18418 -0.96582,-2.15 -2.15,-2.15zM47.3,40.85c-1.18418,0 -2.15,0.96582 -2.15,2.15c0,1.18418 0.96582,2.15 2.15,2.15c1.18418,0 2.15,-0.96582 2.15,-2.15c0,-1.18418 -0.96582,-2.15 -2.15,-2.15zM55.9,40.85c-1.18418,0 -2.15,0.96582 -2.15,2.15c0,1.18418 0.96582,2.15 2.15,2.15c1.18418,0 2.15,-0.96582 2.15,-2.15c0,-1.18418 -0.96582,-2.15 -2.15,-2.15zM64.5,40.85c-1.18418,0 -2.15,0.96582 -2.15,2.15c0,1.18418 0.96582,2.15 2.15,2.15c1.18418,0 2.15,-0.96582 2.15,-2.15c0,-1.18418 -0.96582,-2.15 -2.15,-2.15zM73.1,40.85c-1.18418,0 -2.15,0.96582 -2.15,2.15c0,1.18418 0.96582,2.15 2.15,2.15c1.18418,0 2.15,-0.96582 2.15,-2.15c0,-1.18418 -0.96582,-2.15 -2.15,-2.15zM81.7,40.85c-1.18418,0 -2.15,0.96582 -2.15,2.15c0,1.18418 0.96582,2.15 2.15,2.15c1.18418,0 2.15,-0.96582 2.15,-2.15c0,-1.18418 -0.96582,-2.15 -2.15,-2.15zM90.3,40.85c-1.18418,0 -2.15,0.96582 -2.15,2.15c0,1.18418 0.96582,2.15 2.15,2.15c1.18418,0 2.15,-0.96582 2.15,-2.15c0,-1.18418 -0.96582,-2.15 -2.15,-2.15zM98.9,40.85c-1.18418,0 -2.15,0.96582 -2.15,2.15c0,1.18418 0.96582,2.15 2.15,2.15c1.18418,0 2.15,-0.96582 2.15,-2.15c0,-1.18418 -0.96582,-2.15 -2.15,-2.15zM107.5,40.85c-1.18418,0 -2.15,0.96582 -2.15,2.15c0,1.18418 0.96582,2.15 2.15,2.15c1.18418,0 2.15,-0.96582 2.15,-2.15c0,-1.18418 -0.96582,-2.15 -2.15,-2.15zM116.1,40.85c-1.18418,0 -2.15,0.96582 -2.15,2.15c0,1.18418 0.96582,2.15 2.15,2.15c1.18418,0 2.15,-0.96582 2.15,-2.15c0,-1.18418 -0.96582,-2.15 -2.15,-2.15zM124.7,40.85c-1.18418,0 -2.15,0.96582 -2.15,2.15c0,1.18418 0.96582,2.15 2.15,2.15c1.18418,0 2.15,-0.96582 2.15,-2.15c0,-1.18418 -0.96582,-2.15 -2.15,-2.15zM133.3,40.85c-1.18418,0 -2.15,0.96582 -2.15,2.15c0,1.18418 0.96582,2.15 2.15,2.15c1.18418,0 2.15,-0.96582 2.15,-2.15c0,-1.18418 -0.96582,-2.15 -2.15,-2.15zM141.9,40.85c-1.18418,0 -2.15,0.96582 -2.15,2.15c0,1.18418 0.96582,2.15 2.15,2.15c1.18418,0 2.15,-0.96582 2.15,-2.15c0,-1.18418 -0.96582,-2.15 -2.15,-2.15zM30.1,49.45c-1.18418,0 -2.15,0.96582 -2.15,2.15c0,1.18418 0.96582,2.15 2.15,2.15c1.18418,0 2.15,-0.96582 2.15,-2.15c0,-1.18418 -0.96582,-2.15 -2.15,-2.15zM141.9,49.45c-1.18418,0 -2.15,0.96582 -2.15,2.15c0,1.18418 0.96582,2.15 2.15,2.15c1.18418,0 2.15,-0.96582 2.15,-2.15c0,-1.18418 -0.96582,-2.15 -2.15,-2.15zM60.2,55.9c-0.77266,-0.0084 -1.49492,0.39473 -1.88965,1.0666c-0.38633,0.67188 -0.38633,1.49492 0,2.1668c0.39473,0.67188 1.11699,1.075 1.88965,1.0666h3.225c4.18242,0 7.525,3.34258 7.525,7.525c0,4.18242 -3.34258,7.525 -7.525,7.525h-7.18906c-0.12598,-0.0168 -0.24355,-0.03359 -0.36953,-0.03359c-0.10078,0.0084 -0.20996,0.0168 -0.31074,0.03359h-25.45566c-0.77266,-0.0084 -1.49492,0.39473 -1.88965,1.0666c-0.38633,0.67188 -0.38633,1.49492 0,2.1668c0.39473,0.67188 1.11699,1.075 1.88965,1.0666h23.65v12.9h-23.65c-0.77266,-0.0084 -1.49492,0.39473 -1.88965,1.0666c-0.38633,0.67188 -0.38633,1.49492 0,2.1668c0.39473,0.67188 1.11699,1.075 1.88965,1.0666h25.43887c0.23516,0.04199 0.47031,0.04199 0.69707,0h3.96406c5.96289,0 10.75,4.78711 10.75,10.75c0,5.96289 -4.78711,10.75 -10.75,10.75h-4.3c-0.77266,-0.0084 -1.49492,0.39473 -1.88965,1.0666c-0.38633,0.67188 -0.38633,1.49492 0,2.1668c0.39473,0.67188 1.11699,1.075 1.88965,1.0666h4.3c7.525,0 13.52149,-5.66895 14.61328,-12.9h0.43672v-2.15c0,-8.28926 -6.76074,-15.05 -15.05,-15.05h-2.15v-12.9h5.375c5.74453,0 10.33848,-4.22441 11.38828,-9.675h0.43672v-2.15c0,-6.50879 -5.31621,-11.825 -11.825,-11.825zM108.575,55.9c-6.50879,0 -11.825,5.31621 -11.825,11.825v2.15h0.43672c1.0498,5.45059 5.64375,9.675 11.38828,9.675h9.675v12.9h-6.45c-8.28926,0 -15.05,6.76074 -15.05,15.05v2.15h0.43672c1.0918,7.23105 7.08828,12.9 14.61328,12.9h4.3c0.77266,0.0084 1.49492,-0.39473 1.88965,-1.0666c0.38633,-0.67187 0.38633,-1.49492 0,-2.1668c-0.39472,-0.67187 -1.11699,-1.075 -1.88965,-1.0666h-4.3c-5.96289,0 -10.75,-4.78711 -10.75,-10.75c0,-5.96289 4.78711,-10.75 10.75,-10.75h8.23887c0.23516,0.04199 0.47031,0.04199 0.69707,0h21.16406c0.77266,0.0084 1.49492,-0.39473 1.88965,-1.0666c0.38633,-0.67187 0.38633,-1.49492 0,-2.1668c-0.39472,-0.67187 -1.11699,-1.075 -1.88965,-1.0666h-19.35v-12.9h19.35c0.77266,0.0084 1.49492,-0.39473 1.88965,-1.0666c0.38633,-0.67187 0.38633,-1.49492 0,-2.1668c-0.39472,-0.67187 -1.11699,-1.075 -1.88965,-1.0666h-21.16406c-0.12598,-0.0168 -0.24355,-0.03359 -0.36953,-0.03359c-0.10078,0.0084 -0.20996,0.0168 -0.31074,0.03359h-11.48066c-4.18242,0 -7.525,-3.34258 -7.525,-7.525c0,-4.18242 3.34258,-7.525 7.525,-7.525h3.225c0.77266,0.0084 1.49492,-0.39473 1.88965,-1.0666c0.38633,-0.67187 0.38633,-1.49492 0,-2.1668c-0.39472,-0.67187 -1.11699,-1.075 -1.88965,-1.0666zM30.1,58.05c-1.18418,0 -2.15,0.96582 -2.15,2.15c0,1.18418 0.96582,2.15 2.15,2.15c1.18418,0 2.15,-0.96582 2.15,-2.15c0,-1.18418 -0.96582,-2.15 -2.15,-2.15zM141.9,58.05c-1.18418,0 -2.15,0.96582 -2.15,2.15c0,1.18418 0.96582,2.15 2.15,2.15c1.18418,0 2.15,-0.96582 2.15,-2.15c0,-1.18418 -0.96582,-2.15 -2.15,-2.15zM30.1,66.65c-1.18418,0 -2.15,0.96582 -2.15,2.15c0,1.18418 0.96582,2.15 2.15,2.15c1.18418,0 2.15,-0.96582 2.15,-2.15c0,-1.18418 -0.96582,-2.15 -2.15,-2.15zM141.9,66.65c-1.18418,0 -2.15,0.96582 -2.15,2.15c0,1.18418 0.96582,2.15 2.15,2.15c1.18418,0 2.15,-0.96582 2.15,-2.15c0,-1.18418 -0.96582,-2.15 -2.15,-2.15zM30.1,83.85c-1.18418,0 -2.15,0.96582 -2.15,2.15c0,1.18418 0.96582,2.15 2.15,2.15c1.18418,0 2.15,-0.96582 2.15,-2.15c0,-1.18418 -0.96582,-2.15 -2.15,-2.15zM141.9,83.85c-1.18418,0 -2.15,0.96582 -2.15,2.15c0,1.18418 0.96582,2.15 2.15,2.15c1.18418,0 2.15,-0.96582 2.15,-2.15c0,-1.18418 -0.96582,-2.15 -2.15,-2.15zM30.1,101.05c-1.18418,0 -2.15,0.96582 -2.15,2.15c0,1.18418 0.96582,2.15 2.15,2.15c1.18418,0 2.15,-0.96582 2.15,-2.15c0,-1.18418 -0.96582,-2.15 -2.15,-2.15zM141.9,101.05c-1.18418,0 -2.15,0.96582 -2.15,2.15c0,1.18418 0.96582,2.15 2.15,2.15c1.18418,0 2.15,-0.96582 2.15,-2.15c0,-1.18418 -0.96582,-2.15 -2.15,-2.15zM30.1,109.65c-1.18418,0 -2.15,0.96582 -2.15,2.15c0,1.18418 0.96582,2.15 2.15,2.15c1.18418,0 2.15,-0.96582 2.15,-2.15c0,-1.18418 -0.96582,-2.15 -2.15,-2.15zM141.9,109.65c-1.18418,0 -2.15,0.96582 -2.15,2.15c0,1.18418 0.96582,2.15 2.15,2.15c1.18418,0 2.15,-0.96582 2.15,-2.15c0,-1.18418 -0.96582,-2.15 -2.15,-2.15zM30.1,118.25c-1.18418,0 -2.15,0.96582 -2.15,2.15c0,1.18418 0.96582,2.15 2.15,2.15c1.18418,0 2.15,-0.96582 2.15,-2.15c0,-1.18418 -0.96582,-2.15 -2.15,-2.15zM141.9,118.25c-1.18418,0 -2.15,0.96582 -2.15,2.15c0,1.18418 0.96582,2.15 2.15,2.15c1.18418,0 2.15,-0.96582 2.15,-2.15c0,-1.18418 -0.96582,-2.15 -2.15,-2.15zM30.1,126.85c-1.18418,0 -2.15,0.96582 -2.15,2.15c0,1.18418 0.96582,2.15 2.15,2.15c1.18418,0 2.15,-0.96582 2.15,-2.15c0,-1.18418 -0.96582,-2.15 -2.15,-2.15zM38.7,126.85c-1.18418,0 -2.15,0.96582 -2.15,2.15c0,1.18418 0.96582,2.15 2.15,2.15c1.18418,0 2.15,-0.96582 2.15,-2.15c0,-1.18418 -0.96582,-2.15 -2.15,-2.15zM47.3,126.85c-1.18418,0 -2.15,0.96582 -2.15,2.15c0,1.18418 0.96582,2.15 2.15,2.15c1.18418,0 2.15,-0.96582 2.15,-2.15c0,-1.18418 -0.96582,-2.15 -2.15,-2.15zM55.9,126.85c-1.18418,0 -2.15,0.96582 -2.15,2.15c0,1.18418 0.96582,2.15 2.15,2.15c1.18418,0 2.15,-0.96582 2.15,-2.15c0,-1.18418 -0.96582,-2.15 -2.15,-2.15zM64.5,126.85c-1.18418,0 -2.15,0.96582 -2.15,2.15c0,1.18418 0.96582,2.15 2.15,2.15c1.18418,0 2.15,-0.96582 2.15,-2.15c0,-1.18418 -0.96582,-2.15 -2.15,-2.15zM73.1,126.85c-1.18418,0 -2.15,0.96582 -2.15,2.15c0,1.18418 0.96582,2.15 2.15,2.15c1.18418,0 2.15,-0.96582 2.15,-2.15c0,-1.18418 -0.96582,-2.15 -2.15,-2.15zM81.7,126.85c-1.18418,0 -2.15,0.96582 -2.15,2.15c0,1.18418 0.96582,2.15 2.15,2.15c1.18418,0 2.15,-0.96582 2.15,-2.15c0,-1.18418 -0.96582,-2.15 -2.15,-2.15zM90.3,126.85c-1.18418,0 -2.15,0.96582 -2.15,2.15c0,1.18418 0.96582,2.15 2.15,2.15c1.18418,0 2.15,-0.96582 2.15,-2.15c0,-1.18418 -0.96582,-2.15 -2.15,-2.15zM98.9,126.85c-1.18418,0 -2.15,0.96582 -2.15,2.15c0,1.18418 0.96582,2.15 2.15,2.15c1.18418,0 2.15,-0.96582 2.15,-2.15c0,-1.18418 -0.96582,-2.15 -2.15,-2.15zM107.5,126.85c-1.18418,0 -2.15,0.96582 -2.15,2.15c0,1.18418 0.96582,2.15 2.15,2.15c1.18418,0 2.15,-0.96582 2.15,-2.15c0,-1.18418 -0.96582,-2.15 -2.15,-2.15zM116.1,126.85c-1.18418,0 -2.15,0.96582 -2.15,2.15c0,1.18418 0.96582,2.15 2.15,2.15c1.18418,0 2.15,-0.96582 2.15,-2.15c0,-1.18418 -0.96582,-2.15 -2.15,-2.15zM124.7,126.85c-1.18418,0 -2.15,0.96582 -2.15,2.15c0,1.18418 0.96582,2.15 2.15,2.15c1.18418,0 2.15,-0.96582 2.15,-2.15c0,-1.18418 -0.96582,-2.15 -2.15,-2.15zM133.3,126.85c-1.18418,0 -2.15,0.96582 -2.15,2.15c0,1.18418 0.96582,2.15 2.15,2.15c1.18418,0 2.15,-0.96582 2.15,-2.15c0,-1.18418 -0.96582,-2.15 -2.15,-2.15zM141.9,126.85c-1.18418,0 -2.15,0.96582 -2.15,2.15c0,1.18418 0.96582,2.15 2.15,2.15c1.18418,0 2.15,-0.96582 2.15,-2.15c0,-1.18418 -0.96582,-2.15 -2.15,-2.15z"></path></g></g></svg>